<?xml version="1.0" standalone="no"?>
<!DOCTYPE svg PUBLIC "-//W3C//DTD SVG 20010904//EN"
 "http://www.w3.org/TR/2001/REC-SVG-20010904/DTD/svg10.dtd">
<svg version="1.0" xmlns="http://www.w3.org/2000/svg"
 width="1250.000000pt" height="1250.000000pt" viewBox="0 0 1250.000000 1250.000000"
 preserveAspectRatio="xMidYMid meet">
<metadata>
Created by potrace 1.14, written by Peter Selinger 2001-2017
</metadata>
<g transform="translate(0.000000,1250.000000) scale(0.100000,-0.100000)"
fill="#000000" stroke="none">
<path d="M5939 12496 c-2 -2 -57 -7 -122 -10 -65 -4 -126 -9 -135 -11 -9 -1
-53 -6 -96 -10 -43 -4 -86 -8 -95 -10 -9 -1 -43 -6 -76 -10 -32 -4 -66 -8 -75
-10 -8 -2 -51 -8 -95 -15 -85 -12 -306 -55 -365 -70 -19 -5 -46 -11 -60 -14
-43 -7 -190 -46 -310 -81 -722 -212 -1369 -532 -1970 -974 -98 -72 -290 -223
-326 -256 -6 -5 -44 -39 -85 -75 -319 -281 -636 -622 -880 -950 -91 -122 -257
-363 -305 -443 -16 -27 -34 -56 -39 -65 -195 -324 -380 -704 -495 -1012 -17
-47 -36 -94 -41 -105 -6 -12 -11 -27 -13 -35 -2 -8 -6 -22 -9 -30 -66 -165
-201 -676 -242 -915 -3 -16 -7 -41 -10 -55 -3 -14 -7 -38 -10 -55 -2 -16 -7
-48 -10 -70 -4 -22 -8 -51 -10 -65 -2 -14 -7 -47 -10 -75 -4 -27 -8 -61 -11
-75 -3 -24 -8 -74 -19 -205 -27 -304 -27 -865 0 -1095 2 -19 7 -66 10 -105 4
-38 9 -81 10 -95 7 -53 35 -246 40 -273 3 -15 10 -55 15 -90 28 -163 89 -427
141 -607 61 -211 211 -636 258 -727 21 -42 51 -111 51 -118 0 -14 187 -381
260 -510 173 -306 367 -589 599 -875 47 -58 90 -110 96 -116 5 -6 43 -49 84
-95 78 -87 365 -378 461 -465 119 -108 261 -226 395 -328 77 -58 145 -110 150
-114 6 -5 73 -51 150 -103 606 -413 1272 -710 2000 -893 77 -19 155 -37 173
-41 18 -3 63 -12 100 -19 37 -8 84 -17 106 -20 21 -4 41 -8 45 -10 3 -2 33 -7
66 -11 32 -3 62 -8 65 -10 3 -1 32 -6 65 -10 64 -7 111 -13 160 -20 17 -2 59
-7 95 -10 36 -3 83 -8 105 -10 238 -24 825 -24 1050 0 22 2 69 7 105 10 36 4
79 8 95 10 17 3 53 7 80 10 28 3 75 9 105 15 30 5 75 12 100 15 25 3 52 8 60
10 8 2 30 7 48 10 17 3 47 7 65 10 17 3 39 8 47 10 8 2 31 7 50 10 19 3 64 13
100 21 36 9 72 17 80 19 176 37 561 158 795 248 230 88 584 254 780 366 28 15
68 38 90 51 285 160 737 483 975 696 14 12 50 44 80 71 87 76 378 369 472 473
173 193 352 421 511 652 57 83 247 385 247 393 0 1 23 42 51 91 47 82 185 350
222 434 8 19 28 62 42 95 81 180 222 566 270 740 41 149 66 242 69 260 2 11
11 47 19 80 9 33 27 119 42 190 33 167 32 164 41 222 3 26 8 57 10 68 3 11 7
40 10 65 3 25 9 72 14 105 5 33 12 96 16 140 4 44 8 94 10 110 24 217 24 917
0 1055 -2 14 -7 62 -11 106 -3 45 -8 93 -10 105 -2 13 -6 47 -10 74 -11 87
-45 299 -60 375 -3 14 -8 41 -11 60 -44 247 -231 876 -313 1055 -5 11 -33 76
-62 145 -135 324 -316 662 -527 985 -61 93 -239 344 -252 355 -3 3 -37 46 -75
95 -38 50 -81 104 -96 120 -14 17 -61 71 -104 120 -152 174 -399 422 -565 565
-52 46 -108 95 -125 109 -105 92 -376 294 -545 407 -112 76 -355 224 -365 224
-4 0 -20 10 -37 21 -97 70 -596 303 -856 401 -319 120 -755 242 -1047 293 -16
2 -57 10 -90 15 -33 6 -71 13 -85 16 -14 2 -50 7 -80 10 -30 3 -57 7 -60 9 -3
2 -39 6 -80 10 -41 4 -77 8 -80 10 -3 2 -52 6 -110 10 -58 4 -114 9 -125 12
-22 5 -751 14 -756 9z"/>
</g>
</svg>
