<svg width="132" height="131" viewBox="0 0 132 131" fill="none" xmlns="http://www.w3.org/2000/svg">
<path d="M33.42 9.85C1.97999 21.13 -6.96999 59.53 7.75001 91.66C22.47 123.78 56.61 139.24 85.11 126.18L81.28 120.96C66.1 122.78 52.44 107.08 39.05 78.54C25.66 50 20.67 20.63 34.42 17.61L33.42 9.84V9.85Z" fill="black"/>
<path d="M31.48 0.839996C10.61 28.96 22.96 68.9 52.18 89.69C81.4 110.48 114.36 107.62 131.81 79.56L125.83 77C113.87 87.29 98.19 78.28 71.97 59.99C45.75 41.7 26.23 17.87 36.36 7.32L31.47 0.839996H31.48Z" fill="black"/>
<path d="M33.74 5.73999C21.97 34.02 39.36 62.61 66.91 71.21C94.46 79.81 120.68 68.43 129.68 41.14L124.36 40.74C116.54 52.28 102.16 49.39 77.51 41.96C52.86 34.54 32.62 20.83 38.9 9.57999L33.74 5.73999V5.73999Z" fill="black"/>
</svg>
