<svg width="700" height="124" viewBox="0 0 700 124" fill="none" xmlns="http://www.w3.org/2000/svg">
<path d="M275.9 1.69C273.65 9.13 271.23 16.4 267.84 24.25C250.98 63.3 228.83 89.82 215.58 83.5C202.33 77.18 205.41 40.73 222.25 1.7H173.71C173.71 1.7 158.65 121.47 192.54 122.76C241.74 124.64 287.13 1.7 287.13 1.7H275.89L275.9 1.69Z" fill="black"/>
<path d="M552.89 1.24998C531.97 4.82998 517.56 26.64 509.46 40.59C507.84 43.39 508.44 43.14 509.33 40.34C517.13 15.7 509.77 -2.92002 487.49 1.24998C472.76 4.00998 457.16 21.66 444.61 42.68C443.73 44.16 444.25 43.89 445.59 39.57C449.69 26.39 460.78 1.83998 460.78 1.83998H421.25C421.25 1.83998 405.76 94.81 413.4 121.82H421.57C428.58 70.53 454.6 38.86 469.98 36.42C492.8 32.8 477.65 84.87 466.02 121.82H475.73C489.06 87.95 508.92 45.61 531.35 42.45C555.43 39.06 531.93 99.85 517.11 121.82H564.11C564.68 119.25 570.19 98.74 573.14 79.62C578.25 46.46 583.96 -2.14002 552.87 1.24998H552.89Z" fill="black"/>
<path d="M384.45 61.97C386.66 41.21 379.26 20.89 363.21 9.25001C338.82 -8.43999 303.71 0.610008 284.78 29.47C265.85 58.33 270.28 96.06 294.67 113.75C319.06 131.44 354.17 122.39 373.1 93.53C377.65 86.59 380.84 79.14 382.74 71.57H357.17C363.26 90.12 361.16 104.07 348.97 105.4C334.67 106.96 321.4 96.15 308.96 70.82C307.51 67.87 306.19 64.91 304.99 61.97H384.47H384.45ZM308.66 16.56C324.04 14.8 336.96 27.43 349.41 52.76C349.47 52.88 349.52 52.98 349.56 53.07H302.13C295.84 34.29 297.65 17.81 308.66 16.55V16.56Z" fill="black"/>
<path d="M667.54 111.26C652.3 112.84 636.65 98.16 622.85 70.29C621.78 68.12 620.76 65.95 619.8 63.79L619.04 62.19H699.36C698.41 54.67 696.5 43.87 691.99 35.32C675.81 4.71 646.23 -6.99 614.28 5.76C586.56 16.83 576.92 58.18 592.3 89.18C607.69 120.18 642.48 129.55 670.01 118.02C688.09 110.45 699.26 91.55 699.94 71.66H670.75C677.91 92.07 679.33 110.03 667.54 111.25V111.26ZM618.1 11.45C634.72 8.12 648.99 24.93 662.79 52.8C662.9 53.02 663.01 53.22 663.11 53.41H616.04C607.86 31.82 606.92 13.69 618.1 11.45V11.45Z" fill="black"/>
<path d="M114.34 53.74H43.58L46.92 62.75H83.4C94.09 88.07 96.93 111.93 82.78 113.57C67.3 115.37 52.61 100.28 38.96 72.03C25.31 43.77 19.72 14.38 33.73 11.39C48.76 8.19001 62.41 21.86 74.73 44.73H112.65C112.36 43.49 112.07 42.25 111.59 41.05C98.85 8.88002 63.22 -6.44999 33.21 4.01001C1.16001 15.18 -7.96999 53.2 7.04001 85.01C22.05 116.82 58.5 132.12 87.56 119.2C112.31 108.19 119.4 82.02 114.81 53.74H114.33H114.34Z" fill="black"/>
<path d="M160.83 1.69H120.14C121.17 5.3 121.78 8.96 122.51 13.44H158.95C159.39 8.98 159.86 5.17 160.82 1.69H160.83Z" fill="black"/>
<path d="M119.05 121.75H166.56C160.19 100.84 156.82 60.21 158.44 22.63H124.04C127.92 76.35 124.75 108.31 119.04 121.75H119.05Z" fill="black"/>
</svg>
