<svg width="53" height="131" viewBox="0 0 53 131" fill="none" xmlns="http://www.w3.org/2000/svg">
<path d="M45.12 68.43C44.2 65.84 43.05 63.14 41.66 60.41C34.76 46.82 27.5 36.03 22.08 38.24C16.66 40.44 16.16 54.79 23.05 68.38L5.83 68.33C5.83 68.33 -0.349998 26.58 13.52 26.13C33.66 25.48 52.26 68.45 52.26 68.45H45.12V68.43Z" fill="black"/>
<path d="M0.97998 130.81C6.44998 77.53 20.82 66.13 27.7 64.59C38.11 62.25 52.04 72.12 30.8 130.81H24.73C30.16 110.08 40.27 77.77 28.36 86.09C21.16 91.12 11.04 104.6 5.5 130.81H0.97998Z" fill="black"/>
<path d="M19.59 13.19C18.44 17.74 19.4 21.52 21.76 23.24C22.34 23.66 23.01 23.97 23.75 24.11C24.27 24.21 24.81 24.25 25.4 24.21C30.24 23.85 35.5 18.32 37.13 11.87C37.17 11.7 37.2 11.54 37.24 11.37C37.99 7.98001 37.57 5.05001 36.26 3.15001C35.17 1.57001 33.47 0.69001 31.33 0.85001C26.49 1.21001 21.23 6.74001 19.6 13.19H19.59Z" fill="black"/>
</svg>
