<svg width="134" height="130" viewBox="0 0 134 130" fill="none" xmlns="http://www.w3.org/2000/svg">
<path d="M128.47 25.9C123.76 22.96 116.63 21.61 108.6 21.73C112.52 18.92 115.13 16.04 116.23 13.32C117.81 9.43001 116.38 5.89001 111.46 3.44001C100.33 -2.10999 75.65 4.76837e-06 56.33 8.14001C47.38 11.92 41.19 16.32 38.2 20.52C30.81 21.32 23.03 23.45 16.15 26.83C5.02004 32.31 -0.729979 39.61 0.190021 45.67C0.420021 47.17 1.02999 48.59 2.09999 49.88C2.83999 50.78 3.77 51.62 4.92 52.39C9.82 55.63 17.58 56.92 26.11 56.36C31.94 63.83 39.47 71.5 47.62 74.73C40.34 87.18 35.81 104.18 38.77 129.7L65.49 129.8L69.39 129.65C63.56 119.84 61.01 103.52 62.38 88.16C77.46 86.02 89.7 71.25 97.34 59.21C103.57 57.97 109.84 55.98 115.57 53.26C116.04 53.04 116.46 52.8 116.91 52.58C126.04 47.98 131.76 42.38 133.36 37.19C134.69 32.87 133.19 28.83 128.48 25.89L128.47 25.9ZM66.24 35.8C66.24 35.8 66.26 35.74 66.27 35.71C66.3 35.71 66.33 35.71 66.36 35.71C66.32 35.74 66.28 35.78 66.24 35.81V35.8ZM32.18 55.68C38.52 54.66 45.01 52.7 50.84 49.82C51.19 49.65 51.51 49.47 51.83 49.3C54.65 58.41 54.27 66.66 49.91 67.28C42.81 68.29 37.37 63.11 32.17 55.68H32.18ZM65.2 79.87C62.17 78.35 70.5 70.55 77.66 60.47C81.37 60.81 85.41 60.77 89.58 60.36C80.75 73.15 68.77 81.65 65.2 79.87Z" fill="black"/>
</svg>
