<svg width="78" height="130" viewBox="0 0 78 130" fill="none" xmlns="http://www.w3.org/2000/svg">
<path d="M43 129.336L74.93 129.246C74.93 129.246 84.91 52.0657 62.52 51.2357C30.01 50.0257 0 129.466 0 129.466L5.70001 129.446" fill="black"/>
<path d="M21.98 30.0057C19.18 41.0557 21.51 50.2456 27.24 54.4056C28.66 55.4356 30.27 56.1656 32.07 56.5256C33.32 56.7756 34.66 56.8657 36.07 56.7556C47.83 55.8657 60.59 42.4557 64.56 26.7957C64.66 26.3857 64.73 25.9856 64.82 25.5856C66.65 17.3657 65.63 10.2457 62.43 5.62565C59.78 1.78565 55.65 -0.34435 50.45 0.0456503C38.69 0.93565 25.93 14.3457 21.96 30.0057H21.98Z" fill="black"/>
</svg>
