<svg width="680" height="721" viewBox="0 0 680 721" fill="none" xmlns="http://www.w3.org/2000/svg">
<path d="M669.109 310.121H255.009L274.559 362.851H488.039C550.599 511.021 567.219 650.651 484.399 660.291C393.809 670.841 307.809 582.531 227.929 417.151C148.049 251.771 115.299 79.7213 197.349 62.2713C285.309 43.5613 365.199 123.561 437.329 257.391H659.229C657.529 250.151 655.819 242.871 653.049 235.881C578.499 47.5813 369.979 -42.1187 194.329 19.0713C6.73892 84.4313 -46.6511 306.981 41.1889 493.141C129.029 679.301 342.379 768.881 512.439 693.221C657.279 628.781 698.799 475.621 671.919 310.121H669.099H669.109Z" fill="black"/>
</svg>
