<svg width="1395" height="202" viewBox="0 0 1395 202" fill="none" xmlns="http://www.w3.org/2000/svg">
<path fill-rule="evenodd" clip-rule="evenodd" d="M98.18 201.44H690.82C745.04 201.44 789 156.35 789 100.72C789 45.09 745.04 0 690.82 0H98.18C43.96 0 0 45.09 0 100.72C0 156.35 43.96 201.44 98.18 201.44ZM826.608 66.664C821.797 76.168 819.392 87.08 819.392 99.4C819.392 111.837 821.797 122.808 826.608 132.312C831.419 141.699 838.283 149.032 847.2 154.312C856.117 159.475 866.443 162.056 878.176 162.056C891.904 162.056 903.285 158.36 912.32 150.968C921.472 143.576 927.221 133.485 929.568 120.696H914.256C911.909 129.379 907.568 136.125 901.232 140.936C894.896 145.629 886.976 147.976 877.472 147.976C869.024 147.976 861.573 145.923 855.12 141.816C848.667 137.709 843.68 131.96 840.16 124.568C836.757 117.176 835.056 108.787 835.056 99.4C835.056 89.896 836.757 81.5067 840.16 74.232C843.68 66.84 848.667 61.0907 855.12 56.984C861.573 52.8773 869.024 50.824 877.472 50.824C886.859 50.824 894.779 53.2293 901.232 58.04C907.803 62.8507 912.203 69.5387 914.432 78.104H929.744C927.397 65.3147 921.589 55.224 912.32 47.832C903.168 40.44 891.787 36.744 878.176 36.744C866.443 36.744 856.117 39.384 847.2 44.664C838.283 49.8267 831.419 57.16 826.608 66.664ZM1017.21 80.04C1010.52 73.4693 1001.72 70.184 990.809 70.184C983.769 70.184 977.785 71.6507 972.857 74.584C968.046 77.5173 964.174 81.3307 961.241 86.024V37.8H946.809V161H961.241V116.12C961.241 106.029 963.646 98.0507 968.457 92.184C973.385 86.3173 980.014 83.384 988.345 83.384C996.206 83.384 1002.25 85.848 1006.47 90.776C1010.7 95.5867 1012.81 102.627 1012.81 111.896V161H1027.24V111.016C1027.24 96.936 1023.9 86.6107 1017.21 80.04ZM1063.77 156.248C1070.57 160.12 1078.31 162.056 1087 162.056C1095.68 162.056 1103.37 160.12 1110.05 156.248C1116.86 152.376 1122.14 146.979 1125.89 140.056C1129.65 133.133 1131.53 125.155 1131.53 116.12C1131.53 107.085 1129.65 99.1067 1125.89 92.184C1122.14 85.2613 1116.86 79.864 1110.05 75.992C1103.37 72.12 1095.68 70.184 1087 70.184C1078.31 70.184 1070.57 72.12 1063.77 75.992C1057.08 79.864 1051.86 85.2613 1048.1 92.184C1044.35 99.1067 1042.47 107.085 1042.47 116.12C1042.47 125.155 1044.35 133.133 1048.1 140.056C1051.86 146.979 1057.08 152.376 1063.77 156.248ZM1102.49 144.984C1098.03 147.8 1092.86 149.208 1087 149.208C1081.13 149.208 1075.91 147.8 1071.33 144.984C1066.87 142.168 1063.41 138.237 1060.95 133.192C1058.49 128.147 1057.25 122.456 1057.25 116.12C1057.25 109.784 1058.49 104.093 1060.95 99.048C1063.41 94.0027 1066.87 90.072 1071.33 87.256C1075.91 84.44 1081.13 83.032 1087 83.032C1092.86 83.032 1098.03 84.44 1102.49 87.256C1107.06 90.072 1110.58 94.0027 1113.05 99.048C1115.51 104.093 1116.74 109.784 1116.74 116.12C1116.74 122.456 1115.51 128.147 1113.05 133.192C1110.58 138.237 1107.06 142.168 1102.49 144.984ZM1161.98 39.208C1160.22 37.448 1157.99 36.568 1155.29 36.568C1152.59 36.568 1150.36 37.448 1148.6 39.208C1146.84 40.968 1145.96 43.1973 1145.96 45.896C1145.96 48.5947 1146.84 50.824 1148.6 52.584C1150.36 54.344 1152.59 55.224 1155.29 55.224C1157.99 55.224 1160.22 54.344 1161.98 52.584C1163.74 50.824 1164.62 48.5947 1164.62 45.896C1164.62 43.1973 1163.74 40.968 1161.98 39.208ZM1249.16 153.608C1256.08 147.859 1260.48 139.997 1262.36 130.024H1247.93C1246.64 136.008 1243.76 140.701 1239.3 144.104C1234.84 147.507 1229.33 149.208 1222.76 149.208C1214.19 149.208 1207.21 146.157 1201.81 140.056C1196.53 133.837 1193.89 125.8 1193.89 115.944C1193.89 106.205 1196.53 98.2853 1201.81 92.184C1207.21 86.0827 1214.19 83.032 1222.76 83.032C1229.09 83.032 1234.49 84.7333 1238.95 88.136C1243.41 91.5387 1246.34 96.1147 1247.75 101.864H1262.36C1260.6 92.008 1256.26 84.264 1249.33 78.632C1242.53 73 1233.85 70.184 1223.29 70.184C1214.6 70.184 1206.92 72.12 1200.23 75.992C1193.54 79.7467 1188.32 85.0853 1184.57 92.008C1180.93 98.9307 1179.11 106.909 1179.11 115.944C1179.11 124.979 1180.93 133.016 1184.57 140.056C1188.2 146.979 1193.31 152.376 1199.88 156.248C1206.45 160.12 1214.08 162.056 1222.76 162.056C1233.44 162.056 1242.24 159.24 1249.16 153.608ZM1162.51 71.24H1148.07V161H1162.51V71.24ZM1279.26 92.008C1275.74 98.9307 1273.98 106.968 1273.98 116.12C1273.98 125.155 1275.8 133.192 1279.44 140.232C1283.2 147.155 1288.42 152.552 1295.1 156.424C1301.79 160.179 1309.6 162.056 1318.51 162.056C1328.72 162.056 1337.34 159.181 1344.38 153.432C1351.42 147.565 1355.82 140.056 1357.58 130.904H1342.98C1341.45 136.653 1338.4 141.171 1333.82 144.456C1329.37 147.624 1323.91 149.208 1317.46 149.208C1309.13 149.208 1302.38 146.568 1297.22 141.288C1292.05 136.008 1289.36 128.968 1289.12 120.168V118.936H1358.82C1359.05 116.12 1359.17 114.067 1359.17 112.776C1358.93 104.093 1357 96.5253 1353.36 90.072C1349.72 83.6187 1344.74 78.6907 1338.4 75.288C1332.06 71.8853 1324.79 70.184 1316.58 70.184C1308.25 70.184 1300.85 72.12 1294.4 75.992C1287.95 79.7467 1282.9 85.0853 1279.26 92.008ZM1335.58 89.192C1340.63 93.416 1343.5 99.3413 1344.21 106.968H1290C1290.7 99.8107 1293.64 94.0027 1298.8 89.544C1303.96 85.0853 1309.95 82.856 1316.75 82.856C1324.38 82.856 1330.66 84.968 1335.58 89.192ZM1394.66 201.43H785.63V189.43H1394.66V201.43ZM320.897 40.7L320.9 40.69L320.89 40.7H320.897ZM312.84 63.25C316.228 55.4035 318.648 48.1365 320.897 40.7H332.13C332.13 40.7 286.74 163.64 237.54 161.76C203.65 160.47 218.71 40.7 218.71 40.7H267.25C250.41 79.73 247.33 116.18 260.58 122.5C273.83 128.82 295.98 102.3 312.84 63.25ZM597.89 40.25C576.97 43.83 562.56 65.64 554.46 79.59C554.211 80.0205 554.014 80.3789 553.863 80.6671C553.999 80.321 554.159 79.8775 554.33 79.34C562.13 54.7 554.77 36.08 532.49 40.25C517.76 43.01 502.16 60.66 489.61 81.68C489.462 81.9297 489.353 82.1296 489.281 82.2686C489.477 81.8223 489.936 80.6786 490.59 78.57C494.69 65.39 505.78 40.84 505.78 40.84H466.25C466.25 40.84 450.76 133.81 458.4 160.82H466.57C473.58 109.53 499.6 77.86 514.98 75.42C537.8 71.8 522.65 123.87 511.02 160.82H520.73C534.06 126.95 553.92 84.61 576.35 81.45C600.43 78.06 576.93 138.85 562.11 160.82H609.11C609.205 160.391 609.438 159.463 609.773 158.124L609.774 158.12L609.775 158.118L609.776 158.116L609.776 158.114C611.452 151.425 615.684 134.541 618.14 118.62C623.25 85.46 628.96 36.86 597.87 40.25H597.89ZM408.21 48.25C424.26 59.89 431.66 80.21 429.45 100.97H349.99C351.19 103.91 352.51 106.87 353.96 109.82C366.4 135.15 379.67 145.96 393.97 144.4C406.16 143.07 408.26 129.12 402.17 110.57H427.74C425.84 118.14 422.65 125.59 418.1 132.53C399.17 161.39 364.06 170.44 339.67 152.75C315.28 135.06 310.85 97.33 329.78 68.47C348.71 39.61 383.82 30.56 408.21 48.25ZM394.41 91.76C381.96 66.43 369.04 53.8 353.66 55.56V55.55C342.65 56.81 340.84 73.29 347.13 92.07H394.56C394.52 91.98 394.47 91.88 394.41 91.76ZM712.54 150.26C697.3 151.84 681.65 137.16 667.85 109.29C666.78 107.12 665.76 104.95 664.8 102.79L664.04 101.19H744.36C743.41 93.67 741.5 82.87 736.99 74.32C720.81 43.71 691.23 32.01 659.28 44.76C631.56 55.83 621.92 97.18 637.3 128.18C652.69 159.18 687.48 168.55 715.01 157.02C733.09 149.45 744.26 130.55 744.94 110.66H715.75C722.91 131.07 724.33 149.03 712.54 150.25V150.26ZM663.1 50.45C679.72 47.12 693.99 63.93 707.79 91.8C707.867 91.9534 707.943 92.097 708.017 92.2343C708.048 92.294 708.08 92.3525 708.11 92.41H661.04C652.86 70.82 651.92 52.69 663.1 50.45ZM159.33 92.74H159.34H159.81C164.4 121.02 157.31 147.19 132.56 158.2C103.5 171.12 67.05 155.82 52.04 124.01C37.03 92.2 46.16 54.18 78.21 43.01C108.22 32.55 143.85 47.88 156.59 80.05C157.07 81.25 157.36 82.49 157.65 83.73H119.73C107.41 60.86 93.76 47.19 78.73 50.39C64.72 53.38 70.31 82.77 83.96 111.03C97.61 139.28 112.3 154.37 127.78 152.57C141.93 150.93 139.09 127.07 128.4 101.75H91.92L88.58 92.74H159.33ZM205.82 40.69H165.14C166.17 44.3 166.78 47.96 167.51 52.44H203.95C204.39 47.98 204.86 44.17 205.82 40.69ZM211.56 160.75H164.05H164.04C169.75 147.31 172.92 115.35 169.04 61.63H203.44C201.82 99.21 205.19 139.84 211.56 160.75Z" fill="black"/>
</svg>
