<svg width="78" height="130" viewBox="0 0 78 130" fill="none" xmlns="http://www.w3.org/2000/svg">
<path d="M43 129.336L74.93 129.246C74.93 129.246 84.91 52.0657 62.52 51.2357C30.01 50.0257 0 129.466 0 129.466L5.70001 129.446" fill="white"/>
<path d="M21.9799 30.0057C19.1799 41.0557 21.5099 50.2456 27.2399 54.4056C28.6599 55.4356 30.2699 56.1656 32.0699 56.5256C33.3199 56.7756 34.6599 56.8656 36.0699 56.7556C47.8299 55.8656 60.5899 42.4557 64.5599 26.7957C64.6599 26.3857 64.7299 25.9856 64.8199 25.5856C66.6499 17.3656 65.6299 10.2457 62.4299 5.62565C59.7799 1.78565 55.6499 -0.34435 50.4499 0.0456503C38.6899 0.93565 25.9299 14.3457 21.9599 30.0057H21.9799Z" fill="white"/>
</svg>
