<svg width="78" height="130" viewBox="0 0 78 130" fill="none" xmlns="http://www.w3.org/2000/svg">
<path d="M43.75 129.69L75.68 129.6C75.68 129.6 85.66 52.42 63.27 51.59C30.76 50.38 0.75 129.82 0.75 129.82L6.45001 129.8" fill="black"/>
<path d="M22.73 30.36C19.93 41.41 22.26 50.6 27.99 54.76C29.41 55.79 31.02 56.52 32.82 56.88C34.07 57.13 35.41 57.22 36.82 57.11C48.58 56.22 61.34 42.81 65.31 27.15C65.41 26.74 65.48 26.34 65.57 25.94C67.4 17.72 66.38 10.6 63.18 5.98002C60.53 2.14002 56.4 0.0100205 51.2 0.40002C39.44 1.29002 26.68 14.7 22.71 30.36H22.73Z" fill="black"/>
</svg>
