<svg width="133" height="138" viewBox="0 0 133 138" fill="none" xmlns="http://www.w3.org/2000/svg">
<path d="M130.99 60.988H102.07C87.29 23.238 67.72 -0.751999 46.1 0.018001C14.78 1.118 22.87 38.258 29.99 60.988H0C1.7 72.788 6.99 84.148 12.24 95.288C28.7 130.168 68.68 146.958 100.54 132.778C127.68 120.708 136.03 92.008 130.99 60.988V60.988ZM95.28 126.608C78.31 128.588 62.19 112.038 47.22 81.048C44.05 74.498 41.29 67.888 39.04 61.508C33.1 43.148 32.65 28.758 37.79 20.948C40.89 16.248 45.4 14.928 48.63 14.648C64.02 13.318 79.86 30.118 92.63 60.988H51.59L55.56 70.538H95.83L95.96 70.868C107.68 98.628 110.8 124.798 95.28 126.608Z" fill="black"/>
</svg>
