<svg width="146" height="146" viewBox="0 0 146 146" fill="black"
  xmlns="http://www.w3.org/2000/svg">
  <path d="M56.44 82.25C51.74 78.66 47.32 67.91 43.56 54.76C61.18 73.7 92 81.73 117.27 72.71C142.14 63.83 149.5 43.42 144.05 17.75L73.89 17.7L77.02 26.67H107.48C118.43 47.27 119.65 63.8 105.31 65.14C89.75 66.59 80.98 51.32 71.61 34.66C64.74 22.45 59.58 9.57 58.66 0.380005H0.0400085L2.64999 7.27001H24.7C26.83 22.82 35.34 77.56 50.94 89.48C52.64 90.78 54.29 91.51 55.78 91.89L55.82 91.9C56.17 91.99 56.51 92.06 56.84 92.11C50.07 94.64 42.95 103.16 40.11 112.58C37.87 120.04 38.93 126.03 42.34 128.54C43.18 129.16 44.16 129.58 45.28 129.74C46.05 129.85 46.89 129.85 47.78 129.72C55.2 128.62 63.79 119.15 66.97 108.58C67.05 108.3 67.11 108.04 67.19 107.76C68.7 102.22 68.37 97.54 66.57 94.61C65.8 93.36 64.76 92.43 63.49 91.88H123.15C116.2 94.1 108.72 102.86 105.8 112.56C103.56 120.02 104.62 126.01 108.03 128.52C108.87 129.14 109.85 129.56 110.97 129.72C111.74 129.83 112.58 129.83 113.47 129.7C120.89 128.6 129.48 119.13 132.66 108.56C132.74 108.28 132.8 108.02 132.88 107.74C134.39 102.2 134.06 97.52 132.26 94.59C131.49 93.34 130.45 92.41 129.18 91.86H140.57L142.43 83.02H57.93C57.55 82.91 57.06 82.68 56.46 82.21L56.44 82.25Z" fill="black"/>
</svg>
