<svg width="790" height="201" viewBox="0 0 790 201" fill="none"
  xmlns="http://www.w3.org/2000/svg">
  <path d="M690.988 201H98.2039C43.9707 201 0 156.009 0 100.5C0 44.9915 43.9707 0 98.2039 0H690.988C745.222 0 789.192 44.9915 789.192 100.5C789.192 156.009 745.222 201 690.988 201Z" fill="black"/>
  <path d="M320.978 40.6012C318.728 48.0249 316.307 55.2791 312.916 63.1119C296.052 102.077 273.897 128.539 260.644 122.233C247.39 115.926 250.471 79.5559 267.315 40.6112H218.763C218.763 40.6112 203.7 160.12 237.598 161.407C286.81 163.283 332.211 40.6112 332.211 40.6112H320.968L320.978 40.6012Z" fill="white"/>
  <path d="M598.036 40.1621C577.111 43.7343 562.697 65.4967 554.595 79.4162C552.975 82.2101 553.575 81.9607 554.465 79.1668C562.267 54.5806 554.905 36.0013 532.62 40.1621C517.886 42.9161 502.283 60.5276 489.729 81.5017C488.849 82.9784 489.369 82.709 490.71 78.3985C494.811 65.2472 505.903 40.7509 505.903 40.7509H466.364C466.364 40.7509 450.87 133.518 458.512 160.469H466.684C473.696 109.291 499.722 77.69 515.106 75.2553C537.931 71.6432 522.778 123.6 511.145 160.469H520.857C534.19 126.673 554.055 84.4253 576.491 81.2722C600.576 77.8896 577.071 138.547 562.247 160.469H609.259C609.829 157.904 615.34 137.439 618.291 118.361C623.402 85.2734 629.113 36.7796 598.016 40.1621H598.036Z" fill="white"/>
  <path d="M429.555 100.75C431.765 80.0349 424.363 59.7593 408.31 48.1447C383.914 30.4933 348.795 39.5236 329.86 68.3205C310.926 97.1175 315.357 134.765 339.753 152.416C364.149 170.068 399.267 161.038 418.202 132.241C422.753 125.316 425.944 117.882 427.844 110.329H402.268C408.36 128.838 406.259 142.758 394.066 144.085C379.763 145.641 366.489 134.855 354.046 109.58C352.596 106.637 351.276 103.683 350.075 100.75H429.575H429.555ZM353.746 55.4387C369.13 53.6826 382.053 66.285 394.506 91.5597C394.566 91.6794 394.616 91.7792 394.656 91.869H347.215C340.923 73.13 342.734 56.686 353.746 55.4287V55.4387Z" fill="white"/>
  <path d="M712.714 149.932C697.47 151.508 681.816 136.86 668.013 109.051C666.943 106.886 665.922 104.721 664.962 102.566L664.202 100.969H744.541C743.591 93.4655 741.681 82.689 737.17 74.1577C720.986 43.6146 691.399 31.9401 659.441 44.6623C631.714 55.7081 622.072 96.9678 637.455 127.9C652.849 158.832 687.648 168.182 715.184 156.677C733.269 149.124 744.441 130.265 745.122 110.418H715.925C723.086 130.784 724.507 148.705 712.714 149.922V149.932ZM663.262 50.3399C679.886 47.0171 694.159 63.7904 707.963 91.5995C708.073 91.8191 708.183 92.0186 708.283 92.2082H661.201C653.019 70.6654 652.079 52.575 663.262 50.3399V50.3399Z" fill="white"/>
  <path d="M159.379 92.5375H88.6017L91.9425 101.528H128.431C139.124 126.793 141.965 150.6 127.811 152.237C112.327 154.033 97.6339 138.976 83.9805 110.788C70.3272 82.5893 64.7359 53.2635 78.7493 50.28C93.7829 47.087 107.436 60.7272 119.759 83.5472H157.688C157.398 82.3099 157.108 81.0726 156.628 79.8753C143.885 47.7755 108.246 32.479 78.2291 42.9162C46.1713 54.0618 37.0391 91.9987 52.0528 123.739C67.0664 155.48 103.525 170.746 132.592 157.855C157.348 146.869 164.44 120.756 159.849 92.5375H159.369H159.379Z" fill="white"/>
  <path d="M205.88 40.6012H165.18C166.211 44.2033 166.821 47.8553 167.551 52.3255H204C204.44 47.8753 204.91 44.0736 205.87 40.6012H205.88Z" fill="white"/>
  <path d="M164.09 160.399H211.612C205.24 139.535 201.869 98.9934 203.49 61.4955H169.081C172.962 115.098 169.791 146.988 164.08 160.399H164.09Z" fill="white"/>
</svg>
