<?xml version="1.0" encoding="UTF-8"?><svg id="Calque_2" xmlns="http://www.w3.org/2000/svg" viewBox="0 0 679.6 720.09"><g id="Layer_1"><path d="M669.11,310.12H255.01l19.55,52.73h213.48c62.56,148.17,79.18,287.8-3.64,297.44-90.59,10.55-176.59-77.76-256.47-243.14C148.05,251.77,115.3,79.72,197.35,62.27c87.96-18.71,167.85,61.29,239.98,195.12h221.9c-1.7-7.24-3.41-14.52-6.18-21.51C578.5,47.58,369.98-42.12,194.33,19.07,6.74,84.43-46.65,306.98,41.19,493.14c87.84,186.16,301.19,275.74,471.25,200.08,144.84-64.44,186.36-217.6,159.48-383.1h-2.82Z" fill="white"/></g></svg>