<svg width="1395" height="202" viewBox="0 0 1395 202" fill="none" xmlns="http://www.w3.org/2000/svg">
<g clip-path="url(#clip0_136_2)">
<path d="M690.82 201.44H98.18C43.96 201.44 0 156.35 0 100.72C0 45.09 43.96 0 98.18 0H690.82C745.04 0 789 45.09 789 100.72C789 156.35 745.04 201.44 690.82 201.44Z" fill="#A7F700"/>
<path d="M819.392 99.4C819.392 87.08 821.797 76.168 826.608 66.664C831.419 57.16 838.283 49.8267 847.2 44.664C856.117 39.384 866.443 36.744 878.176 36.744C891.787 36.744 903.168 40.44 912.32 47.832C921.589 55.224 927.397 65.3147 929.744 78.104H914.432C912.203 69.5387 907.803 62.8507 901.232 58.04C894.779 53.2293 886.859 50.824 877.472 50.824C869.024 50.824 861.573 52.8773 855.12 56.984C848.667 61.0907 843.68 66.84 840.16 74.232C836.757 81.5067 835.056 89.896 835.056 99.4C835.056 108.787 836.757 117.176 840.16 124.568C843.68 131.96 848.667 137.709 855.12 141.816C861.573 145.923 869.024 147.976 877.472 147.976C886.976 147.976 894.896 145.629 901.232 140.936C907.568 136.125 911.909 129.379 914.256 120.696H929.568C927.221 133.485 921.472 143.576 912.32 150.968C903.285 158.36 891.904 162.056 878.176 162.056C866.443 162.056 856.117 159.475 847.2 154.312C838.283 149.032 831.419 141.699 826.608 132.312C821.797 122.808 819.392 111.837 819.392 99.4ZM990.809 70.184C1001.72 70.184 1010.52 73.4693 1017.21 80.04C1023.9 86.6107 1027.24 96.936 1027.24 111.016V161H1012.81V111.896C1012.81 102.627 1010.7 95.5867 1006.47 90.776C1002.25 85.848 996.206 83.384 988.345 83.384C980.014 83.384 973.385 86.3173 968.457 92.184C963.646 98.0507 961.241 106.029 961.241 116.12V161H946.809V37.8H961.241V86.024C964.174 81.3307 968.046 77.5173 972.857 74.584C977.785 71.6507 983.769 70.184 990.809 70.184ZM1087 162.056C1078.31 162.056 1070.57 160.12 1063.77 156.248C1057.08 152.376 1051.86 146.979 1048.1 140.056C1044.35 133.133 1042.47 125.155 1042.47 116.12C1042.47 107.085 1044.35 99.1067 1048.1 92.184C1051.86 85.2613 1057.08 79.864 1063.77 75.992C1070.57 72.12 1078.31 70.184 1087 70.184C1095.68 70.184 1103.37 72.12 1110.05 75.992C1116.86 79.864 1122.14 85.2613 1125.89 92.184C1129.65 99.1067 1131.53 107.085 1131.53 116.12C1131.53 125.155 1129.65 133.133 1125.89 140.056C1122.14 146.979 1116.86 152.376 1110.05 156.248C1103.37 160.12 1095.68 162.056 1087 162.056ZM1087 149.208C1092.86 149.208 1098.03 147.8 1102.49 144.984C1107.06 142.168 1110.58 138.237 1113.05 133.192C1115.51 128.147 1116.74 122.456 1116.74 116.12C1116.74 109.784 1115.51 104.093 1113.05 99.048C1110.58 94.0027 1107.06 90.072 1102.49 87.256C1098.03 84.44 1092.86 83.032 1087 83.032C1081.13 83.032 1075.91 84.44 1071.33 87.256C1066.87 90.072 1063.41 94.0027 1060.95 99.048C1058.49 104.093 1057.25 109.784 1057.25 116.12C1057.25 122.456 1058.49 128.147 1060.95 133.192C1063.41 138.237 1066.87 142.168 1071.33 144.984C1075.91 147.8 1081.13 149.208 1087 149.208ZM1155.29 36.568C1157.99 36.568 1160.22 37.448 1161.98 39.208C1163.74 40.968 1164.62 43.1973 1164.62 45.896C1164.62 48.5947 1163.74 50.824 1161.98 52.584C1160.22 54.344 1157.99 55.224 1155.29 55.224C1152.59 55.224 1150.36 54.344 1148.6 52.584C1146.84 50.824 1145.96 48.5947 1145.96 45.896C1145.96 43.1973 1146.84 40.968 1148.6 39.208C1150.36 37.448 1152.59 36.568 1155.29 36.568ZM1148.07 71.24H1162.51V161H1148.07V71.24ZM1262.36 130.024C1260.48 139.997 1256.08 147.859 1249.16 153.608C1242.24 159.24 1233.44 162.056 1222.76 162.056C1214.08 162.056 1206.45 160.12 1199.88 156.248C1193.31 152.376 1188.2 146.979 1184.57 140.056C1180.93 133.016 1179.11 124.979 1179.11 115.944C1179.11 106.909 1180.93 98.9307 1184.57 92.008C1188.32 85.0853 1193.54 79.7467 1200.23 75.992C1206.92 72.12 1214.6 70.184 1223.29 70.184C1233.85 70.184 1242.53 73 1249.33 78.632C1256.26 84.264 1260.6 92.008 1262.36 101.864H1247.75C1246.34 96.1147 1243.41 91.5387 1238.95 88.136C1234.49 84.7333 1229.09 83.032 1222.76 83.032C1214.19 83.032 1207.21 86.0827 1201.81 92.184C1196.53 98.2853 1193.89 106.205 1193.89 115.944C1193.89 125.8 1196.53 133.837 1201.81 140.056C1207.21 146.157 1214.19 149.208 1222.76 149.208C1229.33 149.208 1234.84 147.507 1239.3 144.104C1243.76 140.701 1246.64 136.008 1247.93 130.024H1262.36ZM1273.98 116.12C1273.98 106.968 1275.74 98.9307 1279.26 92.008C1282.9 85.0853 1287.95 79.7467 1294.4 75.992C1300.85 72.12 1308.25 70.184 1316.58 70.184C1324.79 70.184 1332.06 71.8853 1338.4 75.288C1344.74 78.6907 1349.72 83.6187 1353.36 90.072C1357 96.5253 1358.93 104.093 1359.17 112.776C1359.17 114.067 1359.05 116.12 1358.82 118.936H1289.12V120.168C1289.36 128.968 1292.05 136.008 1297.22 141.288C1302.38 146.568 1309.13 149.208 1317.46 149.208C1323.91 149.208 1329.37 147.624 1333.82 144.456C1338.4 141.171 1341.45 136.653 1342.98 130.904H1357.58C1355.82 140.056 1351.42 147.565 1344.38 153.432C1337.34 159.181 1328.72 162.056 1318.51 162.056C1309.6 162.056 1301.79 160.179 1295.1 156.424C1288.42 152.552 1283.2 147.155 1279.44 140.232C1275.8 133.192 1273.98 125.155 1273.98 116.12ZM1344.21 106.968C1343.5 99.3413 1340.63 93.416 1335.58 89.192C1330.66 84.968 1324.38 82.856 1316.75 82.856C1309.95 82.856 1303.96 85.0853 1298.8 89.544C1293.64 94.0027 1290.7 99.8107 1290 106.968H1344.21Z" fill="black"/>
<path d="M785.63 195.43H1394.66" stroke="black" stroke-width="12" stroke-miterlimit="10"/>
<path d="M320.9 40.6901C318.65 48.1301 316.23 55.4001 312.84 63.2501C295.98 102.3 273.83 128.82 260.58 122.5C247.33 116.18 250.41 79.7301 267.25 40.7001H218.71C218.71 40.7001 203.65 160.47 237.54 161.76C286.74 163.64 332.13 40.7001 332.13 40.7001H320.89L320.9 40.6901Z" fill="black"/>
<path d="M597.89 40.25C576.97 43.83 562.56 65.64 554.46 79.59C552.84 82.39 553.44 82.14 554.33 79.34C562.13 54.7 554.77 36.08 532.49 40.25C517.76 43.01 502.16 60.66 489.61 81.68C488.73 83.16 489.25 82.89 490.59 78.57C494.69 65.39 505.78 40.84 505.78 40.84H466.25C466.25 40.84 450.76 133.81 458.4 160.82H466.57C473.58 109.53 499.6 77.86 514.98 75.42C537.8 71.8 522.65 123.87 511.02 160.82H520.73C534.06 126.95 553.92 84.61 576.35 81.45C600.43 78.06 576.93 138.85 562.11 160.82H609.11C609.68 158.25 615.19 137.74 618.14 118.62C623.25 85.46 628.96 36.86 597.87 40.25H597.89Z" fill="black"/>
<path d="M429.45 100.97C431.66 80.21 424.26 59.89 408.21 48.25C383.82 30.56 348.71 39.61 329.78 68.47C310.85 97.33 315.28 135.06 339.67 152.75C364.06 170.44 399.17 161.39 418.1 132.53C422.65 125.59 425.84 118.14 427.74 110.57H402.17C408.26 129.12 406.16 143.07 393.97 144.4C379.67 145.96 366.4 135.15 353.96 109.82C352.51 106.87 351.19 103.91 349.99 100.97H429.47H429.45ZM353.66 55.56C369.04 53.8 381.96 66.43 394.41 91.76C394.47 91.88 394.52 91.98 394.56 92.07H347.13C340.84 73.29 342.65 56.81 353.66 55.55V55.56Z" fill="black"/>
<path d="M712.54 150.26C697.3 151.84 681.65 137.16 667.85 109.29C666.78 107.12 665.76 104.95 664.8 102.79L664.04 101.19H744.36C743.41 93.6701 741.5 82.8701 736.99 74.3201C720.81 43.7101 691.23 32.0101 659.28 44.7601C631.56 55.8301 621.92 97.1801 637.3 128.18C652.69 159.18 687.48 168.55 715.01 157.02C733.09 149.45 744.26 130.55 744.94 110.66H715.75C722.91 131.07 724.33 149.03 712.54 150.25V150.26ZM663.1 50.4501C679.72 47.1201 693.99 63.9301 707.79 91.8001C707.9 92.0201 708.01 92.2201 708.11 92.4101H661.04C652.86 70.8201 651.92 52.6901 663.1 50.4501Z" fill="black"/>
<path d="M159.34 92.74H88.5799L91.9199 101.75H128.4C139.09 127.07 141.93 150.93 127.78 152.57C112.3 154.37 97.6099 139.28 83.9599 111.03C70.3099 82.77 64.7199 53.38 78.7299 50.39C93.7599 47.19 107.41 60.86 119.73 83.73H157.65C157.36 82.49 157.07 81.25 156.59 80.05C143.85 47.88 108.22 32.55 78.2099 43.01C46.1599 54.18 37.0299 92.2 52.0399 124.01C67.0499 155.82 103.5 171.12 132.56 158.2C157.31 147.19 164.4 121.02 159.81 92.74H159.33H159.34Z" fill="black"/>
<path d="M205.83 40.6901H165.14C166.17 44.3001 166.78 47.9601 167.51 52.4401H203.95C204.39 47.9801 204.86 44.1701 205.82 40.6901H205.83Z" fill="black"/>
<path d="M164.05 160.75H211.56C205.19 139.84 201.82 99.2101 203.44 61.6301H169.04C172.92 115.35 169.75 147.31 164.04 160.75H164.05Z" fill="black"/>
</g>
<defs>
<clipPath id="clip0_136_2">
<rect width="1394.66" height="201.44" fill="white"/>
</clipPath>
</defs>
</svg>
