<svg width="96" height="130" viewBox="0 0 96 130" fill="none" xmlns="http://www.w3.org/2000/svg">
<path d="M77.7892 30.3857C67.6892 6.52567 43.0492 -5.86433 22.7592 2.72567C2.46916 11.3157 -5.79083 37.6257 4.30917 61.4857C14.4092 85.3457 39.0492 97.7357 59.3392 89.1457C79.6292 80.5557 87.8892 54.2457 77.7892 30.3857V30.3857ZM56.5592 54.8057C46.8592 71.2657 31.9992 80.4957 23.3892 75.4157C14.7692 70.3357 15.6492 52.8757 25.3492 36.4157C35.0492 19.9557 49.9092 10.7257 58.5192 15.8057C67.1392 20.8857 66.2592 38.3457 56.5592 54.8057Z" fill="black"/>
<path d="M95.3392 129.446C93.9892 126.716 92.5392 123.936 91.0092 121.126C77.3492 96.1057 61.9392 78.1857 56.5992 81.1057C51.4192 83.9357 57.6092 105.326 70.4592 129.446H95.3392Z" fill="black"/>
</svg>
